<svg version="1.1" xmlns="http://www.w3.org/2000/svg" xmlns:xlink="http://www.w3.org/1999/xlink" xmlns:a="http://ns.adobe.com/AdobeSVGViewerExtensions/3.0/" x="0px" y="0px" width="500px" height="116.4px" viewBox="0 0 500 116.4" enable-background="new 0 0 500 116.4" xml:space="preserve">
<defs>
</defs>
<g>
<path fill="#FF6900" d="M375.2,116.4l6.2-38.6H242.5l-6.2,38.6 M459.9,0h33.6v41.6h-33.6L459.9,0z"></path>
<path fill="#FF6900" d="M488.2,96.1L500,22H11.8L0,96.1"></path>
<path fill="#FF6900" d="M210,39.8l5.3-33.4H71.2l-5.3,33.4"></path>
</g>
<path d="M78.9,29v-2.2h6.9v0.8l0.5,0.5h11.6l0.4-0.4v-2.3l-0.3-0.3H81.9L79,22.2v-4.8l3.3-3.3h19.7l3.1,3.1v2.2h-6.9v-0.9L97.7,18
H86.3l-0.4,0.4v2.2l0.3,0.3h16.1l2.9,2.9v5l-3.3,3.3H82L78.9,29L78.9,29z M122.7,28.2h3.3l-4.6-3.2l-4.6,3.2h3.1v3.9h-13.6v-3.9h2.3
l8.3-5l-7.7-5.2h-2.6v-3.9H120V18h-3.1l4.5,2.9L126,18h-3.1v-3.9h13.3V18h-2.7l-8.4,5l9,5.2h2.3v3.9h-13.7L122.7,28.2L122.7,28.2z
M137.6,29v-2.2h6.9v0.8l0.5,0.5h11.6l0.4-0.4v-2.3l-0.3-0.3h-16.1l-2.9-2.9v-4.8l3.3-3.3h19.7l3.1,3.1v2.2h-6.9v-0.9l-0.5-0.5H145
l-0.4,0.4v2.2l0.3,0.3H161l2.9,2.9v5l-3.3,3.3h-19.9L137.6,29L137.6,29z M166.9,18h-2v-3.9h12V18h-3.4l2.8,9.5l4.7-13.4h8.6
l4.7,13.4l2.8-9.5h-3.4v-3.9h11.1V18h-2l-4.3,14.1h-9.2l-4.3-13.3l-4.3,13.3h-9.4L166.9,18L166.9,18z M201.7,31.6v-1.8l0.4-0.5h2
l0.4,0.5v1.8l-0.4,0.5h-2L201.7,31.6L201.7,31.6z M204,31.8l0.3-0.3v-1.6l-0.3-0.3h-1.7l-0.3,0.3v1.6l0.3,0.3H204L204,31.8z
M202.3,31.3h0.1v-1.1h-0.1v-0.2h1.4l0.2,0.3v0.4l-0.2,0.2l0.2,0.2v0.3h0.1v0.2h-0.3l-0.1-0.1V31l-0.1-0.1h-0.8v0.4h0.2v0.2h-0.6
L202.3,31.3L202.3,31.3z M203.5,30.6l0.1-0.1v-0.3l-0.1-0.1h-0.8v0.5L203.5,30.6L203.5,30.6z"></path>
<g>
<path fill="#AD1AAC" d="M22.7,34.2l-3,19.2v30.4h13.9l7.8-49.6 M322.1,77.3c3-3.3,5.1-7.7,5.8-13.2h-18.4c-1,4.4-3.6,6.2-6.9,6.2
c-4.9,0-6.2-4-6.2-8.2c0.1-7.4,2.6-14.2,8.7-14.2c3.6,0,5.1,2.3,5.3,6.2h18.7c-0.4-13.8-9.1-20.5-23.5-20.5
c-18.1,0-28.4,12.1-28.4,29.4c0,6.1,1.7,10.9,4.7,14.4L322.1,77.3L322.1,77.3z M338,77.3h18.6l4.5-28.9h12l2.3-14.2h-42.6
l-2.3,14.2h12 M73.9,56.2l-7.5-22H46l-7.8,49.6h16.4l4.1-26l9.9,26h17.3l7.2-45.5H76.7 M479.4,48.3v-6.7h-19.6v-7.4h-27l-12.5,30.2
l-2.8-30.3h-37.7l-6.8,43h18.7l6.7-42.2l8.2,48.8h20.7l23.4-49.2l-7.8,49.2h36.5V69.8h-15.9l0.8-4.6h15.1V52.6h-13.2l0.7-4.2
M139.1,38.3H96.5l-1.6,10.1h12l-5.6,35.5h18.6l5.6-35.5h12 M276.1,77.3l-6.4-43h-23.8l-22.3,47.8l-7.2-17.9
c6-2.1,10.1-7.2,10.1-15.1c0-4.4-1.5-8.2-4.7-10.8H185l-7.2,45.5h18.4l2.4-15.8h1l6.2,15.8h34.6l2.7-6.6L276.1,77.3L276.1,77.3z
M254.6,49.1l1.4,15.8h-7.8C248.2,64.9,254.6,49.1,254.6,49.1z M203.4,56.5h-2.8l1.3-8.5h2.2c3.1,0,4.5,1.3,4.5,3.7
C208.6,55.2,206.5,56.5,203.4,56.5L203.4,56.5z M157.2,65.2h14.7l1.9-12.6h-14.7l0.7-4.2h18.7l1.6-10h-37.1l-7.2,45.5h38.1
l2.2-14.1h-19.7"></path>
</g>
<path d="M248.8,84h4.6l2.4,6.6l2.4-6.6h4.5v12.4h-3.5v-7.7l-3,7.7H255l-3-7.7v7.7h-3.2L248.8,84L248.8,84z M267.9,84h4.6l3.9,12.4
h-3.8l-0.7-2.3h-4.1l-0.7,2.3h-3.3L267.9,84L267.9,84z M268.6,91.7h2.7l-1.4-4.8L268.6,91.7z M277.6,84h4.9c3.2,0,5,1.3,5,3.9V88
c0,1.8-0.9,2.8-2.2,3.3l3,5.1h-3.7L282,92h-0.8v4.4h-3.5L277.6,84L277.6,84z M282.3,89.7c1.2,0,1.8-0.5,1.8-1.5v-0.1
c0-1-0.6-1.4-1.8-1.4h-1.2v3H282.3L282.3,89.7z M288.8,90.3v-0.1c0-3.8,2.7-6.3,6.3-6.3c3.2,0,5.5,1.5,5.8,4.8h-3.7
c-0.1-1.3-0.8-2-2.1-2c-1.6,0-2.6,1.2-2.6,3.5v0.1c0,2.2,1,3.5,2.7,3.5c1.2,0,2.1-0.7,2.3-2h3.5c-0.2,3.2-2.6,4.9-5.8,4.9
C290.9,96.6,288.8,94.1,288.8,90.3z M302.6,84h3.6v4.7h4.1V84h3.6v12.4h-3.6v-4.9h-4.1v4.9h-3.6V84z M321.5,87.5l-2.4,1.5v-3l2.8-2
h3.1v12.4h-3.6L321.5,87.5L321.5,87.5z M329.6,87.5l-2.4,1.5v-3l2.8-2h3.1v12.4h-3.6L329.6,87.5L329.6,87.5z M335.3,89.8h7.8v1.8
h-7.8V89.8L335.3,89.8z M346.7,87.5l-2.4,1.5v-3l2.8-2h3.1v12.4h-3.6L346.7,87.5L346.7,87.5z M352.3,92.5h3.2
c0.1,0.9,0.5,1.4,1.6,1.4c1,0,1.5-0.8,1.5-1.8c0-1.1-0.6-1.8-1.7-1.8c-1,0-1.6,0.4-2,0.9h-2.1L353,84h8.4v2.6h-5.8l-0.1,2.7
c0.5-0.7,1.4-1.3,2.9-1.3c2.3,0,3.8,1.5,3.8,4.2c0,2.6-1.9,4.4-5,4.4C353.8,96.6,352.3,94.8,352.3,92.5L352.3,92.5z"></path>
<g>
<path d="M250.5,101.5h3.2l2.7,8.6h-2.6l-0.5-1.6h-2.8l-0.5,1.6h-2.3L250.5,101.5L250.5,101.5z M250.9,106.8h1.9l-0.9-3.3
L250.9,106.8L250.9,106.8z M257.3,106.6v-5.1h2.5v5c0,1.2,0.3,1.8,1.3,1.8c1,0,1.3-0.6,1.3-1.8v-5h2.5v5.1c0,2.5-1.5,3.7-3.8,3.7
C258.7,110.2,257.3,109,257.3,106.6z M266.5,107.3h2.3c0.1,0.6,0.3,1.1,1.4,1.1c0.7,0,1.1-0.3,1.1-0.9c0-0.5-0.3-0.7-1.4-0.8
c-2.4-0.3-3.2-1-3.2-2.7c0-1.6,1.3-2.7,3.3-2.7c2.1,0,3.2,0.9,3.4,2.7h-2.3c-0.1-0.6-0.4-0.9-1.1-0.9c-0.7,0-1,0.3-1,0.7
c0,0.5,0.3,0.7,1.3,0.8c2.2,0.2,3.3,0.8,3.3,2.7c0,1.6-1.2,2.9-3.5,2.9C267.8,110.2,266.5,109.2,266.5,107.3L266.5,107.3z
M276.8,103.4h-2.2v-1.9h6.9v1.9h-2.2v6.7h-2.5L276.8,103.4L276.8,103.4z M283.2,101.5h2.5v8.6h-2.5V101.5z M287.5,101.5h2.8
l2.8,4.8v-4.8h2.1v8.6h-2.4l-3.1-5.4v5.4h-2.2L287.5,101.5L287.5,101.5z M296.9,111l1-3.2l2,0.7l-1.7,2.9L296.9,111z M305.1,103.4
h-2.2v-1.9h6.9v1.9h-2.2v6.7h-2.5L305.1,103.4L305.1,103.4z M313.6,105.6l-2.5-4.2h2.8l1.3,2.6l1.3-2.6h2.5l-2.3,4.1l2.7,4.5h-2.8
l-1.6-3l-1.6,3H311L313.6,105.6L313.6,105.6z"></path>
</g>
<path d="M475.1,15.7h-4.2l1.2-1c2.1-1.7,3.8-3.3,3.8-6c0-2.4-1.4-3.9-3.6-4.6h-5.7c-1.5,0.4-2.7,1.3-3.5,2.5v3.7h4.2
c0.3-1.6,0.9-2.1,1.7-2.1c0.7,0,1,0.4,1,1c0,1.5-1.6,2.9-3.5,4.5l-3.4,3.1v3.3h11.3L475.1,15.7L475.1,15.7z M476.6,11.2l-0.1,0.6
c-0.1,0.6-0.2,1.2-0.2,1.8c0,4.4,3,6.8,7.5,6.8c2.6,0,4.7-0.8,6.2-2.3V5c-0.6-0.4-1.3-0.8-2.1-1h-5.7
C479.3,4.9,477.2,7.2,476.6,11.2L476.6,11.2z M482.5,12.1l0.1-0.6c0.4-2.4,1-3.4,2.5-3.4c1.3,0,1.7,0.8,1.7,2c0,0.5-0.1,1.1-0.2,1.7
l-0.1,0.6c-0.4,2.3-0.9,3.3-2.4,3.3c-1.4,0-1.8-0.8-1.8-1.9C482.3,13.3,482.4,12.7,482.5,12.1L482.5,12.1z M468.8,21.9l-4.1,2.5
l-0.8,5.1l3.1-1.6l-1.5,9.8h6l2.5-15.7 M489.8,32c0-3.2-2.5-4.6-4.9-4.6c-1.9,0-3,0.9-3.6,1.8c0.3-1.7,0.9-3.2,2.4-3.2
c0.7,0,1,0.3,1,0.9h5.5V26c-0.5-3.3-3.3-4.4-6.4-4.4c-4.4,0-7.7,2.9-8.4,7.6l-0.1,0.5c-0.1,0.7-0.2,1.5-0.2,2.1
c0,2.9,1.2,4.8,3.2,5.8h7.9C488.3,36.6,489.8,34.7,489.8,32L489.8,32z M482.4,34.2c-0.9,0-1.3-0.6-1.3-1.4c0-1,0.7-1.8,1.6-1.8
c0.9,0,1.3,0.6,1.3,1.4C483.9,33.4,483.3,34.2,482.4,34.2L482.4,34.2z"></path>
</svg>
